<svg width="126" height="48" viewBox="0 0 126 48" fill="none" xmlns="http://www.w3.org/2000/svg">
<mask id="path-1-outside-1_74_28022" maskUnits="userSpaceOnUse" x="0" y="0.0583496" width="126" height="48" fill="black">
<rect fill="white" y="0.0583496" width="126" height="48"/>
<path d="M45.6792 14.3987C45.6792 16.7821 43.7472 18.7141 41.3638 18.7141C38.9805 18.7141 37.0485 16.7821 37.0485 14.3987C37.0485 12.0154 38.9805 10.0834 41.3638 10.0834C43.7472 10.0834 45.6792 12.0154 45.6792 14.3987Z"/>
<path d="M37.0485 6.72385C37.0485 8.8558 35.3202 10.5841 33.1883 10.5841C31.0563 10.5841 29.328 8.8558 29.328 6.72385C29.328 4.5919 31.0563 2.86362 33.1883 2.86362C35.3202 2.86362 37.0485 4.5919 37.0485 6.72385Z"/>
<path d="M26.4623 4.55616C26.4623 6.48794 24.8963 8.05396 22.9645 8.05396C21.0328 8.05396 19.4667 6.48794 19.4667 4.55616C19.4667 2.62437 21.0328 1.05835 22.9645 1.05835C24.8963 1.05835 26.4623 2.62437 26.4623 4.55616Z"/>
<path d="M16.0954 7.61042C16.0954 9.35601 14.6803 10.7711 12.9347 10.7711C11.1891 10.7711 9.77402 9.35601 9.77402 7.61042C9.77402 5.86483 11.1891 4.44975 12.9347 4.44975C14.6803 4.44975 16.0954 5.86483 16.0954 7.61042Z"/>
<path d="M9.2936 14.3063C9.2936 15.8983 8.00304 17.1888 6.41107 17.1888C4.81909 17.1888 3.52854 15.8983 3.52854 14.3063C3.52854 12.7143 4.81909 11.4238 6.41107 11.4238C8.00304 11.4238 9.2936 12.7143 9.2936 14.3063Z"/>
<path d="M6.32678 22.0947C6.32678 23.5657 5.13434 24.7581 3.66339 24.7581C2.19244 24.7581 1 23.5657 1 22.0947C1 20.6238 2.19244 19.4313 3.66339 19.4313C5.13434 19.4313 6.32678 20.6238 6.32678 22.0947Z"/>
<path d="M6.42792 29.9985C6.42792 31.2832 5.38642 32.3247 4.10167 32.3247C2.81692 32.3247 1.77542 31.2832 1.77542 29.9985C1.77542 28.7137 2.81692 27.6722 4.10167 27.6722C5.38642 27.6722 6.42792 28.7137 6.42792 29.9985Z"/>
<path d="M8.97331 36.3625C8.97331 37.4983 8.05257 38.419 6.91677 38.419C5.78098 38.419 4.86023 37.4983 4.86023 36.3625C4.86023 35.2267 5.78098 34.306 6.91677 34.306C8.05257 34.306 8.97331 35.2267 8.97331 36.3625Z"/>
<path d="M12.7155 40.7895C12.7155 41.8229 11.8778 42.6607 10.8444 42.6607C9.81104 42.6607 8.97331 41.8229 8.97331 40.7895C8.97331 39.7562 9.81104 38.9184 10.8444 38.9184C11.8778 38.9184 12.7155 39.7562 12.7155 40.7895Z"/>
<path d="M17.5619 43.9181C17.5619 44.863 16.7959 45.6291 15.8509 45.6291C14.906 45.6291 14.14 44.863 14.14 43.9181C14.14 42.9731 14.906 42.2071 15.8509 42.2071C16.7959 42.2071 17.5619 42.9731 17.5619 43.9181Z"/>
<path d="M23.3702 45.3862C23.3702 46.2453 22.6737 46.9418 21.8146 46.9418C20.9555 46.9418 20.259 46.2453 20.259 45.3862C20.259 44.5271 20.9555 43.8306 21.8146 43.8306C22.6737 43.8306 23.3702 44.5271 23.3702 45.3862Z"/>
<path d="M29.032 45.1423C29.032 45.9078 28.4115 46.5283 27.646 46.5283C26.8806 46.5283 26.2601 45.9078 26.2601 45.1423C26.2601 44.3769 26.8806 43.7564 27.646 43.7564C28.4115 43.7564 29.032 44.3769 29.032 45.1423Z"/>
<path d="M34.0322 43.5388C34.0322 44.249 33.4565 44.8247 32.7463 44.8247C32.0361 44.8247 31.4604 44.249 31.4604 43.5388C31.4604 42.8286 32.0361 42.2529 32.7463 42.2529C33.4565 42.2529 34.0322 42.8286 34.0322 43.5388Z"/>
<path d="M38.1358 40.8507C38.1358 41.5044 37.6058 42.0343 36.9521 42.0343C36.2984 42.0343 35.7684 41.5044 35.7684 40.8507C35.7684 40.1969 36.2984 39.667 36.9521 39.667C37.6058 39.667 38.1358 40.1969 38.1358 40.8507Z"/>
<path d="M37.4446 33.8182H35.82L32.672 30.0759H30.9084V33.8182H29.6567V24.4057H32.2927C32.8617 24.4057 33.3358 24.4436 33.715 24.5195C34.0943 24.5911 34.4357 24.7218 34.7391 24.9114C35.0804 25.1263 35.3459 25.3981 35.5356 25.7268C35.7294 26.0513 35.8264 26.4643 35.8264 26.9658C35.8264 27.6443 35.6557 28.2132 35.3143 28.6726C34.973 29.1277 34.5031 29.4712 33.9047 29.703L37.4446 33.8182ZM34.5178 27.0543C34.5178 26.7846 34.4694 26.5465 34.3725 26.34C34.2797 26.1293 34.1238 25.9523 33.9047 25.809C33.7235 25.6868 33.5085 25.6025 33.2599 25.5562C33.0113 25.5056 32.7184 25.4803 32.3812 25.4803H30.9084V29.0329H32.1726C32.5688 29.0329 32.9143 28.9992 33.2093 28.9318C33.5043 28.8601 33.7551 28.7295 33.9616 28.5398C34.1512 28.3628 34.2903 28.1606 34.3788 27.933C34.4715 27.7012 34.5178 27.4083 34.5178 27.0543Z"/>
<path d="M45.9987 25.4866C46.3821 25.9081 46.675 26.4243 46.8773 27.0354C47.0838 27.6464 47.1871 28.3397 47.1871 29.1151C47.1871 29.8905 47.0817 30.5858 46.871 31.2011C46.6645 31.8122 46.3737 32.3221 45.9987 32.7309C45.6109 33.1565 45.1516 33.4768 44.6206 33.6917C44.0938 33.9067 43.4912 34.0141 42.8127 34.0141C42.1511 34.0141 41.5484 33.9046 41.0048 33.6854C40.4654 33.4663 40.006 33.1481 39.6267 32.7309C39.2475 32.3137 38.9546 31.8017 38.7481 31.1948C38.5458 30.588 38.4447 29.8947 38.4447 29.1151C38.4447 28.3481 38.5458 27.6612 38.7481 27.0543C38.9504 26.4433 39.2454 25.9207 39.6331 25.4866C40.0039 25.0736 40.4633 24.7576 41.0111 24.5384C41.5632 24.3193 42.1637 24.2097 42.8127 24.2097C43.487 24.2097 44.0917 24.3214 44.6269 24.5448C45.1663 24.7639 45.6236 25.0779 45.9987 25.4866ZM45.8849 29.1151C45.8849 27.893 45.6109 26.9511 45.0631 26.2894C44.5152 25.6236 43.7672 25.2907 42.819 25.2907C41.8624 25.2907 41.1102 25.6236 40.5623 26.2894C40.0187 26.9511 39.7469 27.893 39.7469 29.1151C39.7469 30.3499 40.025 31.2959 40.5813 31.9534C41.1375 32.6066 41.8835 32.9332 42.819 32.9332C43.7546 32.9332 44.4984 32.6066 45.0505 31.9534C45.6067 31.2959 45.8849 30.3499 45.8849 29.1151Z"/>
<path d="M56.1583 24.4057L52.8459 29.6903V33.8182H51.5943V29.8231L48.2693 24.4057H49.6537L52.2264 28.6157L54.8245 24.4057H56.1583Z"/>
<path d="M65.2054 33.8182H63.8716L62.9487 31.1948H58.8778L57.9548 33.8182H56.6842L60.1104 24.4057H61.7792L65.2054 33.8182ZM62.5631 30.1202L60.9132 25.4993L59.257 30.1202H62.5631Z"/>
<path d="M72.9124 33.8182H66.9577V24.4057H68.2093V32.7056H72.9124V33.8182Z"/>
<path d="M87.2138 33.1228C86.6996 33.3588 86.137 33.5653 85.526 33.7423C84.9191 33.9151 84.3313 34.0015 83.7623 34.0015C83.0291 34.0015 82.3569 33.9003 81.7458 33.6981C81.1348 33.4958 80.6143 33.1923 80.1845 32.7878C79.7504 32.379 79.4154 31.8691 79.1794 31.258C78.9434 30.6427 78.8254 29.9242 78.8254 29.1024C78.8254 27.598 79.2636 26.4117 80.1402 25.5435C81.021 24.6712 82.2283 24.235 83.7623 24.235C84.2975 24.235 84.8433 24.3003 85.3996 24.431C85.9601 24.5574 86.5627 24.7744 87.2075 25.0821V26.5676H87.0937C86.963 26.4664 86.7734 26.3337 86.5248 26.1693C86.2761 26.005 86.0317 25.868 85.7915 25.7585C85.5007 25.6278 85.1699 25.5204 84.799 25.4361C84.4324 25.3476 84.0152 25.3033 83.5474 25.3033C82.4939 25.3033 81.6594 25.6426 81.0442 26.3211C80.4331 26.9953 80.1276 27.9098 80.1276 29.0645C80.1276 30.2824 80.4478 31.2306 81.0884 31.9091C81.729 32.5834 82.6013 32.9205 83.7054 32.9205C84.11 32.9205 84.5125 32.8805 84.9128 32.8004C85.3174 32.7204 85.6714 32.6171 85.9748 32.4907V30.1834H83.4526V29.0835H87.2138V33.1228Z"/>
<path d="M97.5125 33.8182H95.8879L92.7399 30.0759H90.9762V33.8182H89.7246V24.4057H92.3606C92.9295 24.4057 93.4036 24.4436 93.7829 24.5195C94.1622 24.5911 94.5035 24.7218 94.807 24.9114C95.1483 25.1263 95.4138 25.3981 95.6035 25.7268C95.7973 26.0513 95.8942 26.4643 95.8942 26.9658C95.8942 27.6443 95.7236 28.2132 95.3822 28.6726C95.0409 29.1277 94.571 29.4712 93.9725 29.703L97.5125 33.8182ZM94.5857 27.0543C94.5857 26.7846 94.5373 26.5465 94.4403 26.34C94.3476 26.1293 94.1917 25.9523 93.9725 25.809C93.7913 25.6868 93.5764 25.6025 93.3278 25.5562C93.0791 25.5056 92.7862 25.4803 92.4491 25.4803H90.9762V29.0329H92.2405C92.6366 29.0329 92.9822 28.9992 93.2772 28.9318C93.5722 28.8601 93.8229 28.7295 94.0294 28.5398C94.2191 28.3628 94.3582 28.1606 94.4467 27.933C94.5394 27.7012 94.5857 27.4083 94.5857 27.0543Z"/>
<path d="M106.067 25.4866C106.45 25.9081 106.743 26.4243 106.945 27.0354C107.152 27.6464 107.255 28.3397 107.255 29.1151C107.255 29.8905 107.15 30.5858 106.939 31.2011C106.732 31.8122 106.442 32.3221 106.067 32.7309C105.679 33.1565 105.219 33.4768 104.688 33.6917C104.162 33.9067 103.559 34.0141 102.881 34.0141C102.219 34.0141 101.616 33.9046 101.073 33.6854C100.533 33.4663 100.074 33.1481 99.6946 32.7309C99.3154 32.3137 99.0225 31.8017 98.816 31.1948C98.6137 30.588 98.5125 29.8947 98.5125 29.1151C98.5125 28.3481 98.6137 27.6612 98.816 27.0543C99.0182 26.4433 99.3132 25.9207 99.701 25.4866C100.072 25.0736 100.531 24.7576 101.079 24.5384C101.631 24.3193 102.232 24.2097 102.881 24.2097C103.555 24.2097 104.16 24.3214 104.695 24.5448C105.234 24.7639 105.691 25.0779 106.067 25.4866ZM105.953 29.1151C105.953 27.893 105.679 26.9511 105.131 26.2894C104.583 25.6236 103.835 25.2907 102.887 25.2907C101.93 25.2907 101.178 25.6236 100.63 26.2894C100.087 26.9511 99.8147 27.893 99.8147 29.1151C99.8147 30.3499 100.093 31.2959 100.649 31.9534C101.205 32.6066 101.951 32.9332 102.887 32.9332C103.822 32.9332 104.566 32.6066 105.118 31.9534C105.675 31.2959 105.953 30.3499 105.953 29.1151Z"/>
<path d="M116.65 30.038C116.65 30.7207 116.574 31.317 116.422 31.8269C116.275 32.3326 116.03 32.7541 115.689 33.0912C115.364 33.4115 114.985 33.6454 114.551 33.7929C114.117 33.9404 113.611 34.0141 113.034 34.0141C112.444 34.0141 111.93 33.9362 111.492 33.7802C111.053 33.6243 110.684 33.3946 110.385 33.0912C110.044 32.7456 109.797 32.3284 109.646 31.8396C109.498 31.3507 109.424 30.7502 109.424 30.038V24.4057H110.676V30.1012C110.676 30.6111 110.71 31.0136 110.777 31.3086C110.849 31.6036 110.967 31.8712 111.131 32.1114C111.317 32.3853 111.567 32.5918 111.883 32.7309C112.204 32.87 112.587 32.9395 113.034 32.9395C113.485 32.9395 113.868 32.8721 114.184 32.7372C114.5 32.5981 114.753 32.3895 114.943 32.1114C115.107 31.8712 115.223 31.5973 115.291 31.2896C115.362 30.9778 115.398 30.5922 115.398 30.1328V24.4057H116.65V30.038Z"/>
<path d="M125.526 27.2503C125.526 27.6675 125.452 28.0552 125.305 28.4134C125.162 28.7674 124.959 29.0751 124.698 29.3363C124.374 29.6608 123.99 29.9053 123.548 30.0696C123.105 30.2297 122.547 30.3098 121.872 30.3098H120.621V33.8182H119.369V24.4057H121.923C122.488 24.4057 122.966 24.4542 123.358 24.5511C123.75 24.6438 124.098 24.7913 124.401 24.9936C124.759 25.2338 125.035 25.533 125.229 25.8912C125.427 26.2494 125.526 26.7024 125.526 27.2503ZM124.224 27.2819C124.224 26.9574 124.167 26.675 124.053 26.4348C123.939 26.1946 123.767 25.9987 123.535 25.847C123.333 25.7163 123.101 25.6236 122.84 25.5688C122.583 25.5098 122.256 25.4803 121.86 25.4803H120.621V29.2415H121.676C122.182 29.2415 122.593 29.1973 122.909 29.1088C123.225 29.0161 123.482 28.8707 123.68 28.6726C123.878 28.4703 124.017 28.2575 124.098 28.0341C124.182 27.8108 124.224 27.56 124.224 27.2819Z"/>
</mask>
<path d="M45.6792 14.3987C45.6792 16.7821 43.7472 18.7141 41.3638 18.7141C38.9805 18.7141 37.0485 16.7821 37.0485 14.3987C37.0485 12.0154 38.9805 10.0834 41.3638 10.0834C43.7472 10.0834 45.6792 12.0154 45.6792 14.3987Z" fill="#013772"/>
<path d="M37.0485 6.72385C37.0485 8.8558 35.3202 10.5841 33.1883 10.5841C31.0563 10.5841 29.328 8.8558 29.328 6.72385C29.328 4.5919 31.0563 2.86362 33.1883 2.86362C35.3202 2.86362 37.0485 4.5919 37.0485 6.72385Z" fill="#013772"/>
<path d="M26.4623 4.55616C26.4623 6.48794 24.8963 8.05396 22.9645 8.05396C21.0328 8.05396 19.4667 6.48794 19.4667 4.55616C19.4667 2.62437 21.0328 1.05835 22.9645 1.05835C24.8963 1.05835 26.4623 2.62437 26.4623 4.55616Z" fill="#013772"/>
<path d="M16.0954 7.61042C16.0954 9.35601 14.6803 10.7711 12.9347 10.7711C11.1891 10.7711 9.77402 9.35601 9.77402 7.61042C9.77402 5.86483 11.1891 4.44975 12.9347 4.44975C14.6803 4.44975 16.0954 5.86483 16.0954 7.61042Z" fill="#013772"/>
<path d="M9.2936 14.3063C9.2936 15.8983 8.00304 17.1888 6.41107 17.1888C4.81909 17.1888 3.52854 15.8983 3.52854 14.3063C3.52854 12.7143 4.81909 11.4238 6.41107 11.4238C8.00304 11.4238 9.2936 12.7143 9.2936 14.3063Z" fill="#013772"/>
<path d="M6.32678 22.0947C6.32678 23.5657 5.13434 24.7581 3.66339 24.7581C2.19244 24.7581 1 23.5657 1 22.0947C1 20.6238 2.19244 19.4313 3.66339 19.4313C5.13434 19.4313 6.32678 20.6238 6.32678 22.0947Z" fill="#013772"/>
<path d="M6.42792 29.9985C6.42792 31.2832 5.38642 32.3247 4.10167 32.3247C2.81692 32.3247 1.77542 31.2832 1.77542 29.9985C1.77542 28.7137 2.81692 27.6722 4.10167 27.6722C5.38642 27.6722 6.42792 28.7137 6.42792 29.9985Z" fill="#013772"/>
<path d="M8.97331 36.3625C8.97331 37.4983 8.05257 38.419 6.91677 38.419C5.78098 38.419 4.86023 37.4983 4.86023 36.3625C4.86023 35.2267 5.78098 34.306 6.91677 34.306C8.05257 34.306 8.97331 35.2267 8.97331 36.3625Z" fill="#013772"/>
<path d="M12.7155 40.7895C12.7155 41.8229 11.8778 42.6607 10.8444 42.6607C9.81104 42.6607 8.97331 41.8229 8.97331 40.7895C8.97331 39.7562 9.81104 38.9184 10.8444 38.9184C11.8778 38.9184 12.7155 39.7562 12.7155 40.7895Z" fill="#013772"/>
<path d="M17.5619 43.9181C17.5619 44.863 16.7959 45.6291 15.8509 45.6291C14.906 45.6291 14.14 44.863 14.14 43.9181C14.14 42.9731 14.906 42.2071 15.8509 42.2071C16.7959 42.2071 17.5619 42.9731 17.5619 43.9181Z" fill="#013772"/>
<path d="M23.3702 45.3862C23.3702 46.2453 22.6737 46.9418 21.8146 46.9418C20.9555 46.9418 20.259 46.2453 20.259 45.3862C20.259 44.5271 20.9555 43.8306 21.8146 43.8306C22.6737 43.8306 23.3702 44.5271 23.3702 45.3862Z" fill="#013772"/>
<path d="M29.032 45.1423C29.032 45.9078 28.4115 46.5283 27.646 46.5283C26.8806 46.5283 26.2601 45.9078 26.2601 45.1423C26.2601 44.3769 26.8806 43.7564 27.646 43.7564C28.4115 43.7564 29.032 44.3769 29.032 45.1423Z" fill="#013772"/>
<path d="M34.0322 43.5388C34.0322 44.249 33.4565 44.8247 32.7463 44.8247C32.0361 44.8247 31.4604 44.249 31.4604 43.5388C31.4604 42.8286 32.0361 42.2529 32.7463 42.2529C33.4565 42.2529 34.0322 42.8286 34.0322 43.5388Z" fill="#013772"/>
<path d="M38.1358 40.8507C38.1358 41.5044 37.6058 42.0343 36.9521 42.0343C36.2984 42.0343 35.7684 41.5044 35.7684 40.8507C35.7684 40.1969 36.2984 39.667 36.9521 39.667C37.6058 39.667 38.1358 40.1969 38.1358 40.8507Z" fill="#013772"/>
<path d="M37.4446 33.8182H35.82L32.672 30.0759H30.9084V33.8182H29.6567V24.4057H32.2927C32.8617 24.4057 33.3358 24.4436 33.715 24.5195C34.0943 24.5911 34.4357 24.7218 34.7391 24.9114C35.0804 25.1263 35.3459 25.3981 35.5356 25.7268C35.7294 26.0513 35.8264 26.4643 35.8264 26.9658C35.8264 27.6443 35.6557 28.2132 35.3143 28.6726C34.973 29.1277 34.5031 29.4712 33.9047 29.703L37.4446 33.8182ZM34.5178 27.0543C34.5178 26.7846 34.4694 26.5465 34.3725 26.34C34.2797 26.1293 34.1238 25.9523 33.9047 25.809C33.7235 25.6868 33.5085 25.6025 33.2599 25.5562C33.0113 25.5056 32.7184 25.4803 32.3812 25.4803H30.9084V29.0329H32.1726C32.5688 29.0329 32.9143 28.9992 33.2093 28.9318C33.5043 28.8601 33.7551 28.7295 33.9616 28.5398C34.1512 28.3628 34.2903 28.1606 34.3788 27.933C34.4715 27.7012 34.5178 27.4083 34.5178 27.0543Z" fill="#013772"/>
<path d="M45.9987 25.4866C46.3821 25.9081 46.675 26.4243 46.8773 27.0354C47.0838 27.6464 47.1871 28.3397 47.1871 29.1151C47.1871 29.8905 47.0817 30.5858 46.871 31.2011C46.6645 31.8122 46.3737 32.3221 45.9987 32.7309C45.6109 33.1565 45.1516 33.4768 44.6206 33.6917C44.0938 33.9067 43.4912 34.0141 42.8127 34.0141C42.1511 34.0141 41.5484 33.9046 41.0048 33.6854C40.4654 33.4663 40.006 33.1481 39.6267 32.7309C39.2475 32.3137 38.9546 31.8017 38.7481 31.1948C38.5458 30.588 38.4447 29.8947 38.4447 29.1151C38.4447 28.3481 38.5458 27.6612 38.7481 27.0543C38.9504 26.4433 39.2454 25.9207 39.6331 25.4866C40.0039 25.0736 40.4633 24.7576 41.0111 24.5384C41.5632 24.3193 42.1637 24.2097 42.8127 24.2097C43.487 24.2097 44.0917 24.3214 44.6269 24.5448C45.1663 24.7639 45.6236 25.0779 45.9987 25.4866ZM45.8849 29.1151C45.8849 27.893 45.6109 26.9511 45.0631 26.2894C44.5152 25.6236 43.7672 25.2907 42.819 25.2907C41.8624 25.2907 41.1102 25.6236 40.5623 26.2894C40.0187 26.9511 39.7469 27.893 39.7469 29.1151C39.7469 30.3499 40.025 31.2959 40.5813 31.9534C41.1375 32.6066 41.8835 32.9332 42.819 32.9332C43.7546 32.9332 44.4984 32.6066 45.0505 31.9534C45.6067 31.2959 45.8849 30.3499 45.8849 29.1151Z" fill="#013772"/>
<path d="M56.1583 24.4057L52.8459 29.6903V33.8182H51.5943V29.8231L48.2693 24.4057H49.6537L52.2264 28.6157L54.8245 24.4057H56.1583Z" fill="#013772"/>
<path d="M65.2054 33.8182H63.8716L62.9487 31.1948H58.8778L57.9548 33.8182H56.6842L60.1104 24.4057H61.7792L65.2054 33.8182ZM62.5631 30.1202L60.9132 25.4993L59.257 30.1202H62.5631Z" fill="#013772"/>
<path d="M72.9124 33.8182H66.9577V24.4057H68.2093V32.7056H72.9124V33.8182Z" fill="#013772"/>
<path d="M87.2138 33.1228C86.6996 33.3588 86.137 33.5653 85.526 33.7423C84.9191 33.9151 84.3313 34.0015 83.7623 34.0015C83.0291 34.0015 82.3569 33.9003 81.7458 33.6981C81.1348 33.4958 80.6143 33.1923 80.1845 32.7878C79.7504 32.379 79.4154 31.8691 79.1794 31.258C78.9434 30.6427 78.8254 29.9242 78.8254 29.1024C78.8254 27.598 79.2636 26.4117 80.1402 25.5435C81.021 24.6712 82.2283 24.235 83.7623 24.235C84.2975 24.235 84.8433 24.3003 85.3996 24.431C85.9601 24.5574 86.5627 24.7744 87.2075 25.0821V26.5676H87.0937C86.963 26.4664 86.7734 26.3337 86.5248 26.1693C86.2761 26.005 86.0317 25.868 85.7915 25.7585C85.5007 25.6278 85.1699 25.5204 84.799 25.4361C84.4324 25.3476 84.0152 25.3033 83.5474 25.3033C82.4939 25.3033 81.6594 25.6426 81.0442 26.3211C80.4331 26.9953 80.1276 27.9098 80.1276 29.0645C80.1276 30.2824 80.4478 31.2306 81.0884 31.9091C81.729 32.5834 82.6013 32.9205 83.7054 32.9205C84.11 32.9205 84.5125 32.8805 84.9128 32.8004C85.3174 32.7204 85.6714 32.6171 85.9748 32.4907V30.1834H83.4526V29.0835H87.2138V33.1228Z" fill="#013772"/>
<path d="M97.5125 33.8182H95.8879L92.7399 30.0759H90.9762V33.8182H89.7246V24.4057H92.3606C92.9295 24.4057 93.4036 24.4436 93.7829 24.5195C94.1622 24.5911 94.5035 24.7218 94.807 24.9114C95.1483 25.1263 95.4138 25.3981 95.6035 25.7268C95.7973 26.0513 95.8942 26.4643 95.8942 26.9658C95.8942 27.6443 95.7236 28.2132 95.3822 28.6726C95.0409 29.1277 94.571 29.4712 93.9725 29.703L97.5125 33.8182ZM94.5857 27.0543C94.5857 26.7846 94.5373 26.5465 94.4403 26.34C94.3476 26.1293 94.1917 25.9523 93.9725 25.809C93.7913 25.6868 93.5764 25.6025 93.3278 25.5562C93.0791 25.5056 92.7862 25.4803 92.4491 25.4803H90.9762V29.0329H92.2405C92.6366 29.0329 92.9822 28.9992 93.2772 28.9318C93.5722 28.8601 93.8229 28.7295 94.0294 28.5398C94.2191 28.3628 94.3582 28.1606 94.4467 27.933C94.5394 27.7012 94.5857 27.4083 94.5857 27.0543Z" fill="#013772"/>
<path d="M106.067 25.4866C106.45 25.9081 106.743 26.4243 106.945 27.0354C107.152 27.6464 107.255 28.3397 107.255 29.1151C107.255 29.8905 107.15 30.5858 106.939 31.2011C106.732 31.8122 106.442 32.3221 106.067 32.7309C105.679 33.1565 105.219 33.4768 104.688 33.6917C104.162 33.9067 103.559 34.0141 102.881 34.0141C102.219 34.0141 101.616 33.9046 101.073 33.6854C100.533 33.4663 100.074 33.1481 99.6946 32.7309C99.3154 32.3137 99.0225 31.8017 98.816 31.1948C98.6137 30.588 98.5125 29.8947 98.5125 29.1151C98.5125 28.3481 98.6137 27.6612 98.816 27.0543C99.0182 26.4433 99.3132 25.9207 99.701 25.4866C100.072 25.0736 100.531 24.7576 101.079 24.5384C101.631 24.3193 102.232 24.2097 102.881 24.2097C103.555 24.2097 104.16 24.3214 104.695 24.5448C105.234 24.7639 105.691 25.0779 106.067 25.4866ZM105.953 29.1151C105.953 27.893 105.679 26.9511 105.131 26.2894C104.583 25.6236 103.835 25.2907 102.887 25.2907C101.93 25.2907 101.178 25.6236 100.63 26.2894C100.087 26.9511 99.8147 27.893 99.8147 29.1151C99.8147 30.3499 100.093 31.2959 100.649 31.9534C101.205 32.6066 101.951 32.9332 102.887 32.9332C103.822 32.9332 104.566 32.6066 105.118 31.9534C105.675 31.2959 105.953 30.3499 105.953 29.1151Z" fill="#013772"/>
<path d="M116.65 30.038C116.65 30.7207 116.574 31.317 116.422 31.8269C116.275 32.3326 116.03 32.7541 115.689 33.0912C115.364 33.4115 114.985 33.6454 114.551 33.7929C114.117 33.9404 113.611 34.0141 113.034 34.0141C112.444 34.0141 111.93 33.9362 111.492 33.7802C111.053 33.6243 110.684 33.3946 110.385 33.0912C110.044 32.7456 109.797 32.3284 109.646 31.8396C109.498 31.3507 109.424 30.7502 109.424 30.038V24.4057H110.676V30.1012C110.676 30.6111 110.71 31.0136 110.777 31.3086C110.849 31.6036 110.967 31.8712 111.131 32.1114C111.317 32.3853 111.567 32.5918 111.883 32.7309C112.204 32.87 112.587 32.9395 113.034 32.9395C113.485 32.9395 113.868 32.8721 114.184 32.7372C114.5 32.5981 114.753 32.3895 114.943 32.1114C115.107 31.8712 115.223 31.5973 115.291 31.2896C115.362 30.9778 115.398 30.5922 115.398 30.1328V24.4057H116.65V30.038Z" fill="#013772"/>
<path d="M125.526 27.2503C125.526 27.6675 125.452 28.0552 125.305 28.4134C125.162 28.7674 124.959 29.0751 124.698 29.3363C124.374 29.6608 123.99 29.9053 123.548 30.0696C123.105 30.2297 122.547 30.3098 121.872 30.3098H120.621V33.8182H119.369V24.4057H121.923C122.488 24.4057 122.966 24.4542 123.358 24.5511C123.75 24.6438 124.098 24.7913 124.401 24.9936C124.759 25.2338 125.035 25.533 125.229 25.8912C125.427 26.2494 125.526 26.7024 125.526 27.2503ZM124.224 27.2819C124.224 26.9574 124.167 26.675 124.053 26.4348C123.939 26.1946 123.767 25.9987 123.535 25.847C123.333 25.7163 123.101 25.6236 122.84 25.5688C122.583 25.5098 122.256 25.4803 121.86 25.4803H120.621V29.2415H121.676C122.182 29.2415 122.593 29.1973 122.909 29.1088C123.225 29.0161 123.482 28.8707 123.68 28.6726C123.878 28.4703 124.017 28.2575 124.098 28.0341C124.182 27.8108 124.224 27.56 124.224 27.2819Z" fill="#013772"/>
<path d="M45.6792 14.3987C45.6792 16.7821 43.7472 18.7141 41.3638 18.7141C38.9805 18.7141 37.0485 16.7821 37.0485 14.3987C37.0485 12.0154 38.9805 10.0834 41.3638 10.0834C43.7472 10.0834 45.6792 12.0154 45.6792 14.3987Z" stroke="#013772" stroke-width="0.4" mask="url(#path-1-outside-1_74_28022)"/>
<path d="M37.0485 6.72385C37.0485 8.8558 35.3202 10.5841 33.1883 10.5841C31.0563 10.5841 29.328 8.8558 29.328 6.72385C29.328 4.5919 31.0563 2.86362 33.1883 2.86362C35.3202 2.86362 37.0485 4.5919 37.0485 6.72385Z" stroke="#013772" stroke-width="0.4" mask="url(#path-1-outside-1_74_28022)"/>
<path d="M26.4623 4.55616C26.4623 6.48794 24.8963 8.05396 22.9645 8.05396C21.0328 8.05396 19.4667 6.48794 19.4667 4.55616C19.4667 2.62437 21.0328 1.05835 22.9645 1.05835C24.8963 1.05835 26.4623 2.62437 26.4623 4.55616Z" stroke="#013772" stroke-width="0.4" mask="url(#path-1-outside-1_74_28022)"/>
<path d="M16.0954 7.61042C16.0954 9.35601 14.6803 10.7711 12.9347 10.7711C11.1891 10.7711 9.77402 9.35601 9.77402 7.61042C9.77402 5.86483 11.1891 4.44975 12.9347 4.44975C14.6803 4.44975 16.0954 5.86483 16.0954 7.61042Z" stroke="#013772" stroke-width="0.4" mask="url(#path-1-outside-1_74_28022)"/>
<path d="M9.2936 14.3063C9.2936 15.8983 8.00304 17.1888 6.41107 17.1888C4.81909 17.1888 3.52854 15.8983 3.52854 14.3063C3.52854 12.7143 4.81909 11.4238 6.41107 11.4238C8.00304 11.4238 9.2936 12.7143 9.2936 14.3063Z" stroke="#013772" stroke-width="0.4" mask="url(#path-1-outside-1_74_28022)"/>
<path d="M6.32678 22.0947C6.32678 23.5657 5.13434 24.7581 3.66339 24.7581C2.19244 24.7581 1 23.5657 1 22.0947C1 20.6238 2.19244 19.4313 3.66339 19.4313C5.13434 19.4313 6.32678 20.6238 6.32678 22.0947Z" stroke="#013772" stroke-width="0.4" mask="url(#path-1-outside-1_74_28022)"/>
<path d="M6.42792 29.9985C6.42792 31.2832 5.38642 32.3247 4.10167 32.3247C2.81692 32.3247 1.77542 31.2832 1.77542 29.9985C1.77542 28.7137 2.81692 27.6722 4.10167 27.6722C5.38642 27.6722 6.42792 28.7137 6.42792 29.9985Z" stroke="#013772" stroke-width="0.4" mask="url(#path-1-outside-1_74_28022)"/>
<path d="M8.97331 36.3625C8.97331 37.4983 8.05257 38.419 6.91677 38.419C5.78098 38.419 4.86023 37.4983 4.86023 36.3625C4.86023 35.2267 5.78098 34.306 6.91677 34.306C8.05257 34.306 8.97331 35.2267 8.97331 36.3625Z" stroke="#013772" stroke-width="0.4" mask="url(#path-1-outside-1_74_28022)"/>
<path d="M12.7155 40.7895C12.7155 41.8229 11.8778 42.6607 10.8444 42.6607C9.81104 42.6607 8.97331 41.8229 8.97331 40.7895C8.97331 39.7562 9.81104 38.9184 10.8444 38.9184C11.8778 38.9184 12.7155 39.7562 12.7155 40.7895Z" stroke="#013772" stroke-width="0.4" mask="url(#path-1-outside-1_74_28022)"/>
<path d="M17.5619 43.9181C17.5619 44.863 16.7959 45.6291 15.8509 45.6291C14.906 45.6291 14.14 44.863 14.14 43.9181C14.14 42.9731 14.906 42.2071 15.8509 42.2071C16.7959 42.2071 17.5619 42.9731 17.5619 43.9181Z" stroke="#013772" stroke-width="0.4" mask="url(#path-1-outside-1_74_28022)"/>
<path d="M23.3702 45.3862C23.3702 46.2453 22.6737 46.9418 21.8146 46.9418C20.9555 46.9418 20.259 46.2453 20.259 45.3862C20.259 44.5271 20.9555 43.8306 21.8146 43.8306C22.6737 43.8306 23.3702 44.5271 23.3702 45.3862Z" stroke="#013772" stroke-width="0.4" mask="url(#path-1-outside-1_74_28022)"/>
<path d="M29.032 45.1423C29.032 45.9078 28.4115 46.5283 27.646 46.5283C26.8806 46.5283 26.2601 45.9078 26.2601 45.1423C26.2601 44.3769 26.8806 43.7564 27.646 43.7564C28.4115 43.7564 29.032 44.3769 29.032 45.1423Z" stroke="#013772" stroke-width="0.4" mask="url(#path-1-outside-1_74_28022)"/>
<path d="M34.0322 43.5388C34.0322 44.249 33.4565 44.8247 32.7463 44.8247C32.0361 44.8247 31.4604 44.249 31.4604 43.5388C31.4604 42.8286 32.0361 42.2529 32.7463 42.2529C33.4565 42.2529 34.0322 42.8286 34.0322 43.5388Z" stroke="#013772" stroke-width="0.4" mask="url(#path-1-outside-1_74_28022)"/>
<path d="M38.1358 40.8507C38.1358 41.5044 37.6058 42.0343 36.9521 42.0343C36.2984 42.0343 35.7684 41.5044 35.7684 40.8507C35.7684 40.1969 36.2984 39.667 36.9521 39.667C37.6058 39.667 38.1358 40.1969 38.1358 40.8507Z" stroke="#013772" stroke-width="0.4" mask="url(#path-1-outside-1_74_28022)"/>
<path d="M37.4446 33.8182H35.82L32.672 30.0759H30.9084V33.8182H29.6567V24.4057H32.2927C32.8617 24.4057 33.3358 24.4436 33.715 24.5195C34.0943 24.5911 34.4357 24.7218 34.7391 24.9114C35.0804 25.1263 35.3459 25.3981 35.5356 25.7268C35.7294 26.0513 35.8264 26.4643 35.8264 26.9658C35.8264 27.6443 35.6557 28.2132 35.3143 28.6726C34.973 29.1277 34.5031 29.4712 33.9047 29.703L37.4446 33.8182ZM34.5178 27.0543C34.5178 26.7846 34.4694 26.5465 34.3725 26.34C34.2797 26.1293 34.1238 25.9523 33.9047 25.809C33.7235 25.6868 33.5085 25.6025 33.2599 25.5562C33.0113 25.5056 32.7184 25.4803 32.3812 25.4803H30.9084V29.0329H32.1726C32.5688 29.0329 32.9143 28.9992 33.2093 28.9318C33.5043 28.8601 33.7551 28.7295 33.9616 28.5398C34.1512 28.3628 34.2903 28.1606 34.3788 27.933C34.4715 27.7012 34.5178 27.4083 34.5178 27.0543Z" stroke="#013772" stroke-width="0.4" mask="url(#path-1-outside-1_74_28022)"/>
<path d="M45.9987 25.4866C46.3821 25.9081 46.675 26.4243 46.8773 27.0354C47.0838 27.6464 47.1871 28.3397 47.1871 29.1151C47.1871 29.8905 47.0817 30.5858 46.871 31.2011C46.6645 31.8122 46.3737 32.3221 45.9987 32.7309C45.6109 33.1565 45.1516 33.4768 44.6206 33.6917C44.0938 33.9067 43.4912 34.0141 42.8127 34.0141C42.1511 34.0141 41.5484 33.9046 41.0048 33.6854C40.4654 33.4663 40.006 33.1481 39.6267 32.7309C39.2475 32.3137 38.9546 31.8017 38.7481 31.1948C38.5458 30.588 38.4447 29.8947 38.4447 29.1151C38.4447 28.3481 38.5458 27.6612 38.7481 27.0543C38.9504 26.4433 39.2454 25.9207 39.6331 25.4866C40.0039 25.0736 40.4633 24.7576 41.0111 24.5384C41.5632 24.3193 42.1637 24.2097 42.8127 24.2097C43.487 24.2097 44.0917 24.3214 44.6269 24.5448C45.1663 24.7639 45.6236 25.0779 45.9987 25.4866ZM45.8849 29.1151C45.8849 27.893 45.6109 26.9511 45.0631 26.2894C44.5152 25.6236 43.7672 25.2907 42.819 25.2907C41.8624 25.2907 41.1102 25.6236 40.5623 26.2894C40.0187 26.9511 39.7469 27.893 39.7469 29.1151C39.7469 30.3499 40.025 31.2959 40.5813 31.9534C41.1375 32.6066 41.8835 32.9332 42.819 32.9332C43.7546 32.9332 44.4984 32.6066 45.0505 31.9534C45.6067 31.2959 45.8849 30.3499 45.8849 29.1151Z" stroke="#013772" stroke-width="0.4" mask="url(#path-1-outside-1_74_28022)"/>
<path d="M56.1583 24.4057L52.8459 29.6903V33.8182H51.5943V29.8231L48.2693 24.4057H49.6537L52.2264 28.6157L54.8245 24.4057H56.1583Z" stroke="#013772" stroke-width="0.4" mask="url(#path-1-outside-1_74_28022)"/>
<path d="M65.2054 33.8182H63.8716L62.9487 31.1948H58.8778L57.9548 33.8182H56.6842L60.1104 24.4057H61.7792L65.2054 33.8182ZM62.5631 30.1202L60.9132 25.4993L59.257 30.1202H62.5631Z" stroke="#013772" stroke-width="0.4" mask="url(#path-1-outside-1_74_28022)"/>
<path d="M72.9124 33.8182H66.9577V24.4057H68.2093V32.7056H72.9124V33.8182Z" stroke="#013772" stroke-width="0.4" mask="url(#path-1-outside-1_74_28022)"/>
<path d="M87.2138 33.1228C86.6996 33.3588 86.137 33.5653 85.526 33.7423C84.9191 33.9151 84.3313 34.0015 83.7623 34.0015C83.0291 34.0015 82.3569 33.9003 81.7458 33.6981C81.1348 33.4958 80.6143 33.1923 80.1845 32.7878C79.7504 32.379 79.4154 31.8691 79.1794 31.258C78.9434 30.6427 78.8254 29.9242 78.8254 29.1024C78.8254 27.598 79.2636 26.4117 80.1402 25.5435C81.021 24.6712 82.2283 24.235 83.7623 24.235C84.2975 24.235 84.8433 24.3003 85.3996 24.431C85.9601 24.5574 86.5627 24.7744 87.2075 25.0821V26.5676H87.0937C86.963 26.4664 86.7734 26.3337 86.5248 26.1693C86.2761 26.005 86.0317 25.868 85.7915 25.7585C85.5007 25.6278 85.1699 25.5204 84.799 25.4361C84.4324 25.3476 84.0152 25.3033 83.5474 25.3033C82.4939 25.3033 81.6594 25.6426 81.0442 26.3211C80.4331 26.9953 80.1276 27.9098 80.1276 29.0645C80.1276 30.2824 80.4478 31.2306 81.0884 31.9091C81.729 32.5834 82.6013 32.9205 83.7054 32.9205C84.11 32.9205 84.5125 32.8805 84.9128 32.8004C85.3174 32.7204 85.6714 32.6171 85.9748 32.4907V30.1834H83.4526V29.0835H87.2138V33.1228Z" stroke="#013772" stroke-width="0.4" mask="url(#path-1-outside-1_74_28022)"/>
<path d="M97.5125 33.8182H95.8879L92.7399 30.0759H90.9762V33.8182H89.7246V24.4057H92.3606C92.9295 24.4057 93.4036 24.4436 93.7829 24.5195C94.1622 24.5911 94.5035 24.7218 94.807 24.9114C95.1483 25.1263 95.4138 25.3981 95.6035 25.7268C95.7973 26.0513 95.8942 26.4643 95.8942 26.9658C95.8942 27.6443 95.7236 28.2132 95.3822 28.6726C95.0409 29.1277 94.571 29.4712 93.9725 29.703L97.5125 33.8182ZM94.5857 27.0543C94.5857 26.7846 94.5373 26.5465 94.4403 26.34C94.3476 26.1293 94.1917 25.9523 93.9725 25.809C93.7913 25.6868 93.5764 25.6025 93.3278 25.5562C93.0791 25.5056 92.7862 25.4803 92.4491 25.4803H90.9762V29.0329H92.2405C92.6366 29.0329 92.9822 28.9992 93.2772 28.9318C93.5722 28.8601 93.8229 28.7295 94.0294 28.5398C94.2191 28.3628 94.3582 28.1606 94.4467 27.933C94.5394 27.7012 94.5857 27.4083 94.5857 27.0543Z" stroke="#013772" stroke-width="0.4" mask="url(#path-1-outside-1_74_28022)"/>
<path d="M106.067 25.4866C106.45 25.9081 106.743 26.4243 106.945 27.0354C107.152 27.6464 107.255 28.3397 107.255 29.1151C107.255 29.8905 107.15 30.5858 106.939 31.2011C106.732 31.8122 106.442 32.3221 106.067 32.7309C105.679 33.1565 105.219 33.4768 104.688 33.6917C104.162 33.9067 103.559 34.0141 102.881 34.0141C102.219 34.0141 101.616 33.9046 101.073 33.6854C100.533 33.4663 100.074 33.1481 99.6946 32.7309C99.3154 32.3137 99.0225 31.8017 98.816 31.1948C98.6137 30.588 98.5125 29.8947 98.5125 29.1151C98.5125 28.3481 98.6137 27.6612 98.816 27.0543C99.0182 26.4433 99.3132 25.9207 99.701 25.4866C100.072 25.0736 100.531 24.7576 101.079 24.5384C101.631 24.3193 102.232 24.2097 102.881 24.2097C103.555 24.2097 104.16 24.3214 104.695 24.5448C105.234 24.7639 105.691 25.0779 106.067 25.4866ZM105.953 29.1151C105.953 27.893 105.679 26.9511 105.131 26.2894C104.583 25.6236 103.835 25.2907 102.887 25.2907C101.93 25.2907 101.178 25.6236 100.63 26.2894C100.087 26.9511 99.8147 27.893 99.8147 29.1151C99.8147 30.3499 100.093 31.2959 100.649 31.9534C101.205 32.6066 101.951 32.9332 102.887 32.9332C103.822 32.9332 104.566 32.6066 105.118 31.9534C105.675 31.2959 105.953 30.3499 105.953 29.1151Z" stroke="#013772" stroke-width="0.4" mask="url(#path-1-outside-1_74_28022)"/>
<path d="M116.65 30.038C116.65 30.7207 116.574 31.317 116.422 31.8269C116.275 32.3326 116.03 32.7541 115.689 33.0912C115.364 33.4115 114.985 33.6454 114.551 33.7929C114.117 33.9404 113.611 34.0141 113.034 34.0141C112.444 34.0141 111.93 33.9362 111.492 33.7802C111.053 33.6243 110.684 33.3946 110.385 33.0912C110.044 32.7456 109.797 32.3284 109.646 31.8396C109.498 31.3507 109.424 30.7502 109.424 30.038V24.4057H110.676V30.1012C110.676 30.6111 110.71 31.0136 110.777 31.3086C110.849 31.6036 110.967 31.8712 111.131 32.1114C111.317 32.3853 111.567 32.5918 111.883 32.7309C112.204 32.87 112.587 32.9395 113.034 32.9395C113.485 32.9395 113.868 32.8721 114.184 32.7372C114.5 32.5981 114.753 32.3895 114.943 32.1114C115.107 31.8712 115.223 31.5973 115.291 31.2896C115.362 30.9778 115.398 30.5922 115.398 30.1328V24.4057H116.65V30.038Z" stroke="#013772" stroke-width="0.4" mask="url(#path-1-outside-1_74_28022)"/>
<path d="M125.526 27.2503C125.526 27.6675 125.452 28.0552 125.305 28.4134C125.162 28.7674 124.959 29.0751 124.698 29.3363C124.374 29.6608 123.99 29.9053 123.548 30.0696C123.105 30.2297 122.547 30.3098 121.872 30.3098H120.621V33.8182H119.369V24.4057H121.923C122.488 24.4057 122.966 24.4542 123.358 24.5511C123.75 24.6438 124.098 24.7913 124.401 24.9936C124.759 25.2338 125.035 25.533 125.229 25.8912C125.427 26.2494 125.526 26.7024 125.526 27.2503ZM124.224 27.2819C124.224 26.9574 124.167 26.675 124.053 26.4348C123.939 26.1946 123.767 25.9987 123.535 25.847C123.333 25.7163 123.101 25.6236 122.84 25.5688C122.583 25.5098 122.256 25.4803 121.86 25.4803H120.621V29.2415H121.676C122.182 29.2415 122.593 29.1973 122.909 29.1088C123.225 29.0161 123.482 28.8707 123.68 28.6726C123.878 28.4703 124.017 28.2575 124.098 28.0341C124.182 27.8108 124.224 27.56 124.224 27.2819Z" stroke="#013772" stroke-width="0.4" mask="url(#path-1-outside-1_74_28022)"/>
</svg>
